# xmcd
#
# Track frame offsets: 
#        150
#        21294
#        40991
#        60657
#        73597
#        96168
#        117279
#        132447
#        145486
#        161958
#
# Disc length: 2349 seconds
#
# Revision: 0
# Processed by: cddbd v1.5.1PL0 Copyright (c) Steve Scherf et al.
# Submitted via: ExactAudioCopy v0.95a5
#
DISCID=96092b0a
DTITLE=Fat Freddy's Cat - He don't love you
DYEAR=2005
DGENRE=Acoustic
TTITLE0=I just want to dance with you
TTITLE1=Resurrection day
TTITLE2=Back on the road for this old heart
TTITLE3=Four seasons in one day
TTITLE4=You don't love me anymore
TTITLE5=February's here
TTITLE6=Is it worth it
TTITLE7=Starlight
TTITLE8=Secret heart
TTITLE9=He don't love you - live version
EXTD=
EXTT0=
EXTT1=
EXTT2=
EXTT3=
EXTT4=
EXTT5=
EXTT6=
EXTT7=
EXTT8=
EXTT9=
PLAYORDER=
